<?xml version="1.0" standalone="no"?>
<!DOCTYPE svg PUBLIC "-//W3C//DTD SVG 20010904//EN"
 "http://www.w3.org/TR/2001/REC-SVG-20010904/DTD/svg10.dtd">
<svg version="1.0" xmlns="http://www.w3.org/2000/svg"
 width="1100.000000pt" height="1100.000000pt" viewBox="0 0 1100.000000 1100.000000"
 preserveAspectRatio="xMidYMid meet">
<metadata>
Created by potrace 1.11, written by Peter Selinger 2001-2013
</metadata>
<g transform="translate(0.000000,1100.000000) scale(0.100000,-0.100000)"
fill="#000000" stroke="none">
<path d="M4562 8898 c61 -299 111 -648 163 -1138 19 -184 38 -351 41 -371 l5
-35 -148 23 c-197 30 -453 59 -698 77 -249 19 -704 40 -711 33 -3 -2 38 -85
92 -183 89 -166 190 -361 304 -594 l47 -96 -81 13 c-45 6 -173 12 -286 12
-283 1 -522 -26 -935 -106 l-190 -36 115 -110 c177 -169 479 -437 643 -568 81
-65 147 -122 148 -126 0 -3 -55 -22 -123 -40 -247 -67 -563 -185 -893 -334
-167 -74 -800 -392 -834 -418 l-24 -18 24 -16 c13 -8 110 -68 214 -132 284
-176 635 -411 1068 -717 461 -325 605 -419 792 -513 557 -282 1097 -272 2482
45 313 72 1074 262 1069 267 -2 3 -84 0 -181 -6 -762 -47 -1504 57 -2310 323
-202 67 -740 274 -732 282 1 2 32 -6 67 -17 159 -50 546 -152 775 -203 714
-159 1389 -236 2081 -236 l232 0 383 -110 c210 -60 390 -110 398 -110 9 0 -78
49 -194 109 -858 441 -1520 1016 -2220 1926 -62 80 -41 62 180 -161 138 -138
306 -302 375 -365 549 -499 1093 -901 1665 -1228 153 -88 157 -91 292 -233
315 -329 513 -531 517 -527 2 2 -35 63 -82 134 -514 770 -828 1628 -981 2680
-17 116 -31 222 -30 235 0 14 29 -85 64 -220 270 -1051 664 -1991 1154 -2752
l57 -88 105 122 c146 171 221 263 330 408 1014 1348 1144 2555 375 3484 -83
100 -256 278 -256 263 0 -4 27 -87 59 -185 120 -357 172 -648 170 -941 -1 -69
-4 -153 -8 -186 l-6 -60 -14 65 c-21 104 -94 316 -148 430 -145 307 -371 577
-670 799 -108 80 -211 147 -218 140 -2 -3 25 -54 61 -114 283 -476 416 -902
417 -1335 0 -85 -6 -207 -14 -270 l-14 -115 -6 200 c-7 222 -27 387 -66 545
-140 574 -516 1037 -1323 1626 -254 185 -845 573 -856 561 -3 -3 -10 -128 -15
-279 -5 -150 -16 -378 -24 -506 -8 -128 -15 -237 -15 -242 0 -5 -37 29 -81 75
-98 102 -206 185 -479 370 -434 293 -658 470 -1006 791 -56 52 -104 94 -106
94 -3 0 3 -42 14 -92z m2515 -2550 c-3 -7 -5 -2 -5 12 0 14 2 19 5 13 2 -7 2
-19 0 -25z"/>
</g>
</svg>
